<svg width="278" height="45" viewBox="0 0 278 45" fill="none" xmlns="http://www.w3.org/2000/svg">
<path d="M77.13 10.7109L67.8488 39H60.3722L73.0519 4.875H77.8097L77.13 10.7109ZM84.8409 39L75.5363 10.7109L74.7863 4.875H79.5909L92.3409 39H84.8409ZM84.4191 26.2969V31.8047H66.3956V26.2969H84.4191ZM101.833 2.97656V39H95.0831V2.97656H101.833ZM117.818 13.6406L106.802 26.2031L100.896 32.1797L98.4347 27.3047L103.122 21.3516L109.708 13.6406H117.818ZM110.81 39L103.31 27.2812L107.974 23.2031L118.591 39H110.81ZM134.411 33.2812V21.9844C134.411 21.1719 134.278 20.4766 134.013 19.8984C133.747 19.3047 133.333 18.8438 132.771 18.5156C132.224 18.1875 131.513 18.0234 130.638 18.0234C129.888 18.0234 129.239 18.1562 128.693 18.4219C128.146 18.6719 127.724 19.0391 127.427 19.5234C127.13 19.9922 126.982 20.5469 126.982 21.1875H120.232C120.232 20.1094 120.482 19.0859 120.982 18.1172C121.482 17.1484 122.208 16.2969 123.161 15.5625C124.114 14.8125 125.247 14.2266 126.56 13.8047C127.888 13.3828 129.372 13.1719 131.013 13.1719C132.982 13.1719 134.732 13.5 136.263 14.1562C137.794 14.8125 138.997 15.7969 139.872 17.1094C140.763 18.4219 141.208 20.0625 141.208 22.0312V32.8828C141.208 34.2734 141.294 35.4141 141.466 36.3047C141.638 37.1797 141.888 37.9453 142.216 38.6016V39H135.396C135.068 38.3125 134.818 37.4531 134.646 36.4219C134.489 35.375 134.411 34.3281 134.411 33.2812ZM135.302 23.5547L135.349 27.375H131.575C130.685 27.375 129.911 27.4766 129.255 27.6797C128.599 27.8828 128.06 28.1719 127.638 28.5469C127.216 28.9062 126.903 29.3281 126.7 29.8125C126.513 30.2969 126.419 30.8281 126.419 31.4062C126.419 31.9844 126.552 32.5078 126.818 32.9766C127.083 33.4297 127.466 33.7891 127.966 34.0547C128.466 34.3047 129.052 34.4297 129.724 34.4297C130.739 34.4297 131.622 34.2266 132.372 33.8203C133.122 33.4141 133.7 32.9141 134.107 32.3203C134.528 31.7266 134.747 31.1641 134.763 30.6328L136.544 33.4922C136.294 34.1328 135.95 34.7969 135.513 35.4844C135.091 36.1719 134.552 36.8203 133.896 37.4297C133.239 38.0234 132.45 38.5156 131.528 38.9062C130.607 39.2812 129.513 39.4688 128.247 39.4688C126.638 39.4688 125.177 39.1484 123.864 38.5078C122.568 37.8516 121.536 36.9531 120.771 35.8125C120.021 34.6562 119.646 33.3438 119.646 31.875C119.646 30.5469 119.896 29.3672 120.396 28.3359C120.896 27.3047 121.63 26.4375 122.599 25.7344C123.583 25.0156 124.81 24.4766 126.278 24.1172C127.747 23.7422 129.45 23.5547 131.388 23.5547H135.302ZM161.388 33.4688V3H168.185V39H162.068L161.388 33.4688ZM145.357 26.625V26.1328C145.357 24.1953 145.575 22.4375 146.013 20.8594C146.45 19.2656 147.091 17.8984 147.935 16.7578C148.778 15.6172 149.818 14.7344 151.052 14.1094C152.286 13.4844 153.693 13.1719 155.271 13.1719C156.755 13.1719 158.052 13.4844 159.161 14.1094C160.286 14.7344 161.239 15.625 162.021 16.7812C162.818 17.9219 163.458 19.2734 163.943 20.8359C164.427 22.3828 164.778 24.0781 164.997 25.9219V27C164.778 28.7656 164.427 30.4062 163.943 31.9219C163.458 33.4375 162.818 34.7656 162.021 35.9062C161.239 37.0312 160.286 37.9062 159.161 38.5312C158.036 39.1562 156.724 39.4688 155.224 39.4688C153.646 39.4688 152.239 39.1484 151.005 38.5078C149.786 37.8672 148.755 36.9688 147.911 35.8125C147.083 34.6562 146.45 33.2969 146.013 31.7344C145.575 30.1719 145.357 28.4688 145.357 26.625ZM152.107 26.1328V26.625C152.107 27.6719 152.185 28.6484 152.341 29.5547C152.513 30.4609 152.786 31.2656 153.161 31.9688C153.552 32.6562 154.052 33.1953 154.661 33.5859C155.286 33.9609 156.044 34.1484 156.935 34.1484C158.091 34.1484 159.044 33.8906 159.794 33.375C160.544 32.8438 161.114 32.1172 161.505 31.1953C161.911 30.2734 162.146 29.2109 162.208 28.0078V24.9375C162.161 23.9531 162.021 23.0703 161.786 22.2891C161.568 21.4922 161.239 20.8125 160.802 20.25C160.38 19.6875 159.849 19.25 159.208 18.9375C158.583 18.625 157.841 18.4688 156.982 18.4688C156.107 18.4688 155.357 18.6719 154.732 19.0781C154.107 19.4688 153.599 20.0078 153.208 20.6953C152.833 21.3828 152.552 22.1953 152.364 23.1328C152.193 24.0547 152.107 25.0547 152.107 26.1328ZM185.13 39.4688C183.161 39.4688 181.396 39.1562 179.833 38.5312C178.271 37.8906 176.943 37.0078 175.849 35.8828C174.771 34.7578 173.943 33.4531 173.364 31.9688C172.786 30.4688 172.497 28.875 172.497 27.1875V26.25C172.497 24.3281 172.771 22.5703 173.318 20.9766C173.864 19.3828 174.646 18 175.661 16.8281C176.693 15.6562 177.943 14.7578 179.411 14.1328C180.88 13.4922 182.536 13.1719 184.38 13.1719C186.177 13.1719 187.771 13.4688 189.161 14.0625C190.552 14.6562 191.716 15.5 192.653 16.5938C193.607 17.6875 194.325 19 194.81 20.5312C195.294 22.0469 195.536 23.7344 195.536 25.5938V28.4062H175.38V23.9062H188.903V23.3906C188.903 22.4531 188.732 21.6172 188.388 20.8828C188.06 20.1328 187.56 19.5391 186.888 19.1016C186.216 18.6641 185.357 18.4453 184.31 18.4453C183.419 18.4453 182.653 18.6406 182.013 19.0312C181.372 19.4219 180.849 19.9688 180.443 20.6719C180.052 21.375 179.755 22.2031 179.552 23.1562C179.364 24.0938 179.271 25.125 179.271 26.25V27.1875C179.271 28.2031 179.411 29.1406 179.693 30C179.989 30.8594 180.403 31.6016 180.935 32.2266C181.482 32.8516 182.138 33.3359 182.903 33.6797C183.685 34.0234 184.568 34.1953 185.552 34.1953C186.771 34.1953 187.903 33.9609 188.95 33.4922C190.013 33.0078 190.927 32.2812 191.693 31.3125L194.974 34.875C194.443 35.6406 193.716 36.375 192.794 37.0781C191.888 37.7812 190.794 38.3594 189.513 38.8125C188.232 39.25 186.771 39.4688 185.13 39.4688ZM206.13 18.8906V39H199.357V13.6406H205.708L206.13 18.8906ZM205.193 25.4297H203.318C203.318 23.6641 203.528 22.0391 203.95 20.5547C204.388 19.0547 205.021 17.7578 205.849 16.6641C206.693 15.5547 207.732 14.6953 208.966 14.0859C210.2 13.4766 211.63 13.1719 213.255 13.1719C214.38 13.1719 215.411 13.3437 216.349 13.6875C217.286 14.0156 218.091 14.5391 218.763 15.2578C219.45 15.9609 219.982 16.8828 220.357 18.0234C220.732 19.1484 220.919 20.5 220.919 22.0781V39H214.169V22.8281C214.169 21.6719 214.013 20.7812 213.7 20.1562C213.388 19.5312 212.943 19.0938 212.364 18.8438C211.802 18.5938 211.122 18.4688 210.325 18.4688C209.45 18.4688 208.685 18.6484 208.028 19.0078C207.388 19.3672 206.857 19.8672 206.435 20.5078C206.013 21.1328 205.7 21.8672 205.497 22.7109C205.294 23.5547 205.193 24.4609 205.193 25.4297ZM220.286 24.6562L217.872 24.9609C217.872 23.3047 218.075 21.7656 218.482 20.3438C218.903 18.9219 219.521 17.6719 220.333 16.5938C221.161 15.5156 222.185 14.6797 223.403 14.0859C224.622 13.4766 226.028 13.1719 227.622 13.1719C228.841 13.1719 229.95 13.3516 230.95 13.7109C231.95 14.0547 232.802 14.6094 233.505 15.375C234.224 16.125 234.771 17.1094 235.146 18.3281C235.536 19.5469 235.732 21.0391 235.732 22.8047V39H228.958V22.8047C228.958 21.6328 228.802 20.7422 228.489 20.1328C228.193 19.5078 227.755 19.0781 227.177 18.8438C226.614 18.5938 225.943 18.4688 225.161 18.4688C224.349 18.4688 223.638 18.6328 223.028 18.9609C222.419 19.2734 221.911 19.7109 221.505 20.2734C221.099 20.8359 220.794 21.4922 220.591 22.2422C220.388 22.9766 220.286 23.7812 220.286 24.6562ZM248.083 13.6406V39H241.31V13.6406H248.083ZM240.888 7.03125C240.888 6.04688 241.232 5.23437 241.919 4.59375C242.607 3.95313 243.528 3.63281 244.685 3.63281C245.825 3.63281 246.739 3.95313 247.427 4.59375C248.13 5.23437 248.482 6.04688 248.482 7.03125C248.482 8.01562 248.13 8.82813 247.427 9.46875C246.739 10.1094 245.825 10.4297 244.685 10.4297C243.528 10.4297 242.607 10.1094 241.919 9.46875C241.232 8.82813 240.888 8.01562 240.888 7.03125ZM267.349 33.2812V21.9844C267.349 21.1719 267.216 20.4766 266.95 19.8984C266.685 19.3047 266.271 18.8438 265.708 18.5156C265.161 18.1875 264.45 18.0234 263.575 18.0234C262.825 18.0234 262.177 18.1562 261.63 18.4219C261.083 18.6719 260.661 19.0391 260.364 19.5234C260.068 19.9922 259.919 20.5469 259.919 21.1875H253.169C253.169 20.1094 253.419 19.0859 253.919 18.1172C254.419 17.1484 255.146 16.2969 256.099 15.5625C257.052 14.8125 258.185 14.2266 259.497 13.8047C260.825 13.3828 262.31 13.1719 263.95 13.1719C265.919 13.1719 267.669 13.5 269.2 14.1562C270.732 14.8125 271.935 15.7969 272.81 17.1094C273.7 18.4219 274.146 20.0625 274.146 22.0312V32.8828C274.146 34.2734 274.232 35.4141 274.403 36.3047C274.575 37.1797 274.825 37.9453 275.153 38.6016V39H268.333C268.005 38.3125 267.755 37.4531 267.583 36.4219C267.427 35.375 267.349 34.3281 267.349 33.2812ZM268.239 23.5547L268.286 27.375H264.513C263.622 27.375 262.849 27.4766 262.193 27.6797C261.536 27.8828 260.997 28.1719 260.575 28.5469C260.153 28.9062 259.841 29.3281 259.638 29.8125C259.45 30.2969 259.357 30.8281 259.357 31.4062C259.357 31.9844 259.489 32.5078 259.755 32.9766C260.021 33.4297 260.403 33.7891 260.903 34.0547C261.403 34.3047 261.989 34.4297 262.661 34.4297C263.677 34.4297 264.56 34.2266 265.31 33.8203C266.06 33.4141 266.638 32.9141 267.044 32.3203C267.466 31.7266 267.685 31.1641 267.7 30.6328L269.482 33.4922C269.232 34.1328 268.888 34.7969 268.45 35.4844C268.028 36.1719 267.489 36.8203 266.833 37.4297C266.177 38.0234 265.388 38.5156 264.466 38.9062C263.544 39.2812 262.45 39.4688 261.185 39.4688C259.575 39.4688 258.114 39.1484 256.802 38.5078C255.505 37.8516 254.474 36.9531 253.708 35.8125C252.958 34.6562 252.583 33.3438 252.583 31.875C252.583 30.5469 252.833 29.3672 253.333 28.3359C253.833 27.3047 254.568 26.4375 255.536 25.7344C256.521 25.0156 257.747 24.4766 259.216 24.1172C260.685 23.7422 262.388 23.5547 264.325 23.5547H268.239Z" fill="#171717"/>
<path d="M6.33226 7.48165L0.950439 8.74135V40.1517C0.950439 40.1517 18.8058 34.5497 26.0716 43.9681C26.0716 43.9681 33.5297 34.6942 51.0204 40.2443V8.74135L45.062 6.5842L25.3611 14.6566L6.33226 7.48165Z" fill="#EAF0F2"/>
<path d="M6.33191 1.20238V31.763C6.33191 31.763 18.025 32.1812 26.6403 43.5214C26.6403 43.5214 30.1928 32.1311 46.9486 33.2924V0.529724C46.9486 0.529724 35.2386 0.72191 26.0707 12.3504C26.0707 12.3504 18.537 1.39456 6.33191 1.20238Z" fill="#EAF0F2"/>
<path d="M52.2022 8.40615C52.2075 8.34441 52.2075 8.28268 52.2022 8.22153L52.0869 8.03691L51.9483 7.8523H51.7864L51.5785 7.71368C50.2827 7.25418 48.9647 6.86108 47.6288 6.53611V1.15487C47.6288 0.517159 47.1116 0 46.4739 0C38.5168 0.263238 31.124 4.17279 26.4265 10.6012C21.6264 4.04001 14.0228 0.114147 5.89388 0C5.25617 0 4.73901 0.517159 4.73901 1.15487V6.3975C3.4036 6.71548 2.08567 7.10044 0.789859 7.55237L0.581951 7.69097H0.42063L0.282019 7.87559L0.166708 8.0602C0.162049 8.12194 0.162049 8.18367 0.166708 8.24482C0.158554 8.3217 0.158554 8.39915 0.166708 8.47544L0.00480468 40.4862C-0.00160156 40.5555 -0.00160156 40.6248 0.00480468 40.6941C-0.000436789 40.7559 -0.000436789 40.8176 0.00480468 40.8788C0.0414949 40.9609 0.0880851 41.0383 0.143412 41.11V41.2713L0.328029 41.4099L0.512645 41.5252H0.720558H0.95118H1.1358H1.34371C9.40974 38.8206 18.2649 39.8893 25.4556 44.4354C25.5453 44.5128 25.6466 44.5752 25.7561 44.62H26.1026H26.4492C26.568 44.5699 26.6775 44.4994 26.7724 44.4121C33.9683 39.8771 42.8217 38.8171 50.8843 41.5252H51.0689H51.2535H51.5074H51.6921L51.8767 41.4099L52.0613 41.2713V41.11C52.1166 41.0389 52.1632 40.9615 52.1999 40.8788C52.1929 40.7477 52.1929 40.6167 52.1999 40.4862V8.63677C52.2104 8.56048 52.2104 8.48302 52.2022 8.40615ZM2.36114 38.9155V9.49112C3.16192 9.22905 3.93183 8.99085 4.67087 8.77537V32.1715C4.66971 32.8092 5.1857 33.327 5.82342 33.3281C5.84729 33.3281 5.87117 33.3276 5.89446 33.3264L5.98707 33.3497C11.9163 33.3794 17.5969 35.7346 21.8076 39.9091C15.5987 37.5068 8.7831 37.1591 2.36114 38.9155ZM25.3415 40.1863C20.8332 34.6985 14.2331 31.348 7.14194 30.9479V2.33187C14.519 2.81117 21.2502 6.70616 25.3415 12.8637V40.1863ZM27.7205 40.2783V12.8637C31.7879 6.73703 38.469 2.84611 45.8047 2.33187H45.92V31.04C38.8289 31.4401 32.2288 34.7905 27.7205 40.2783ZM50.5395 38.9155C44.11 37.1567 37.2868 37.505 31.0698 39.9085C35.2997 35.7031 41.0187 33.338 46.9829 33.3264C47.6206 33.3264 48.1378 32.8092 48.1378 32.1715V8.77537C48.9385 8.99085 49.7393 9.22963 50.5395 9.49112V38.9155Z" fill="#07A169"/>
<path d="M42.2829 20.3809C42.1233 19.7432 41.4774 19.3554 40.8391 19.5149L40.8158 19.6075C36.876 20.6418 33.2565 22.6423 30.284 25.4279C29.7884 25.8297 29.7127 26.5571 30.1145 27.0522C30.5164 27.5472 31.2432 27.6235 31.7388 27.2216C31.7801 27.1884 31.8186 27.1523 31.8547 27.1139C34.5517 24.5823 37.8387 22.7646 41.4163 21.8252C42.0546 21.6651 42.4424 21.0186 42.2829 20.3809Z" fill="#07A169"/>
<path d="M42.2369 26.4095C42.0773 25.7718 41.4314 25.3839 40.7931 25.5435C36.8446 26.5848 33.2169 28.5928 30.2386 31.3865C29.7669 31.8158 29.7319 32.5461 30.1605 33.0178C30.3813 33.2606 30.6952 33.3981 31.0236 33.3958L31.0469 33.4651C31.337 33.4674 31.6177 33.3602 31.832 33.1646C34.5139 30.6195 37.7944 28.792 41.3709 27.8526C42.0086 27.693 42.3965 27.0472 42.2369 26.4095Z" fill="#07A169"/>
<path d="M42.2264 8.38436C42.0668 7.74664 41.421 7.35878 40.7827 7.51835C36.8428 8.55208 33.2227 10.5526 30.2508 13.3387C29.7395 13.7196 29.6335 14.4435 30.0144 14.9548C30.2473 15.2681 30.623 15.4423 31.0126 15.4178C31.3026 15.4202 31.5833 15.313 31.7976 15.1173C34.4947 12.5857 37.7816 10.7681 41.3592 9.82868C41.9981 9.66852 42.3854 9.02207 42.2264 8.38436Z" fill="#07A169"/>
<path d="M42.2369 14.3537C42.0773 13.716 41.4314 13.3281 40.7931 13.4877C36.8446 14.529 33.2169 16.5371 30.2386 19.3308C29.7669 19.76 29.7319 20.4903 30.1605 20.962C30.3813 21.2049 30.6952 21.3423 31.0236 21.34L31.0469 21.4093C31.337 21.4116 31.6177 21.3045 31.832 21.1094C34.5133 18.5632 37.7944 16.7363 41.3709 15.7975C42.0086 15.6373 42.3965 14.9914 42.2369 14.3537Z" fill="#07A169"/>
</svg>
