<?xml version="1.0" encoding="UTF-8"?>
<svg id="Layer_1" data-name="Layer 1" xmlns="http://www.w3.org/2000/svg" xmlns:xlink="http://www.w3.org/1999/xlink" viewBox="0 0 596.07 792">
  <defs>
    <style>
      .cls-1 {
        fill: none;
      }

      .cls-2 {
        fill: #fdc448;
        stroke: #000;
        stroke-miterlimit: 10;
      }

      .cls-3 {
        clip-path: url(#clippath);
      }
    </style>
    <clipPath id="clippath">
      <path class="cls-1" d="M80.57,112.39c0-25.68,19.28-47.27,44.8-50.13,41.84-4.69,94.6-7.76,161.2-7.76,94,0,161,18,206,54,43,34,72,90,72,156s-22,122-62,160c-52,49-129,71-219,71-.47,0-.94,0-1.4,0-27.92-.07-50.6,22.52-50.6,50.44v137.11c0,27.86-22.59,50.45-50.45,50.45h-50.11c-27.86,0-50.45-22.59-50.45-50.45-20.51-81.04-39.47-192.31-35-324.56,3.26-96.56,18.19-179.83,35-246.11ZM231.57,328.05c0,27.82,22.52,50.42,50.34,50.45.22,0,.44,0,.66,0,81,0,131-41,131-110,0-62-43-99-119-99-4.98,0-9.71.08-14.17.22-27.22.87-48.83,23.19-48.83,50.42v107.91Z"/>
    </clipPath>
  </defs>
  <g class="cls-3">
    <g>
      <path class="cls-2" d="M298.01,313.08c-3.57,0-6.46,2.74-6.46,6.12v154.05c0,3.38,2.89,6.12,6.46,6.12s6.46-2.74,6.46-6.12v-154.05c0-3.38-2.89-6.12-6.46-6.12Z"/>
      <path class="cls-2" d="M298.01,12.73c39.59,0,78.21,7.11,114.35,20.95l43.11,20.29c23.4,13.25,44.61,29.32,63.43,47.56-17.59-22.65-37.05-42.2-57.72-58.51l-43.52-20.5C379.53,7.91,339.28.5,298.03.5c-51.55,0-103.27,12.62-149.67,35.93-19.16,14.06-37.39,30.82-54.19,50.2,6.65-5.51,13.44-10.86,20.57-15.84,53.48-37.45,118.59-58.06,183.28-58.06Z"/>
      <path class="cls-2" d="M168.36,752.38c-24.78-10.87-47.73-25.01-68.74-41.85,17.59,19.35,36.62,35.93,56.58,49.63,2.27,1.06,4.43,2.32,6.73,3.33,42.75,18.75,88.91,28.01,134.89,28.01,54.45,0,108.68-12.97,156.73-38.48,21.58-16.12,41.94-35.71,60.37-58.59-14.45,13.54-30.18,25.89-47.2,36.63-88.08,55.53-202.79,63.72-299.36,21.33Z"/>
      <path class="cls-2" d="M8.93,461.04c3.57-.11,6.36-2.94,6.26-6.32l-.19-5.77c-3.58-106.44-7.65-227.08,69.98-310.26,2.36-2.53,2.11-6.39-.56-8.64-2.67-2.22-6.75-2-9.12.53C-5.74,217.39-1.58,340.6,2.08,449.33l.19,5.78c.11,3.31,2.97,5.92,6.45,5.92.08.01.16.01.21.01Z"/>
      <path class="cls-2" d="M297.88,760.05c67.42,0,133.99-22.28,186.86-64.7,2.72-2.18,3.07-6.04.75-8.63-2.3-2.59-6.39-2.9-9.11-.71-75.51,60.56-180.2,78.2-273.25,45.91-97.19-33.69-169.42-119.57-184.04-218.82-.44-3.03-.84-6.05-1.18-9.08-.37-3.36-3.55-5.75-7.1-5.44-3.55.35-6.12,3.37-5.74,6.73.35,3.16.75,6.32,1.23,9.49,15.27,103.67,90.78,193.41,192.4,228.63,32.25,11.18,65.82,16.63,99.19,16.63Z"/>
      <path class="cls-2" d="M594.44,383.93c-.5-15.67-.99-31.29-1.11-46.83-.48-69.52-14.79-123.65-45.04-170.36C494.35,83.47,398.46,31.74,298.01,31.74c-67.39,0-133.34,22.76-185.73,64.09-2.75,2.16-3.12,6.03-.84,8.63,1.28,1.45,3.12,2.21,4.97,2.21,1.46,0,2.92-.48,4.13-1.41,50.06-39.51,113.08-61.27,177.45-61.27,95.99,0,187.66,49.49,239.25,129.15,28.96,44.73,42.67,96.85,43.13,164.04.11,15.63.61,31.34,1.11,47.1,1.42,44.64,2.9,90.8-5.05,135.01-8.77,48.91-31.11,94.86-64.59,132.84-2.28,2.59-1.92,6.45.82,8.62,1.21.96,2.67,1.43,4.13,1.43,1.85,0,3.69-.74,4.97-2.19,34.93-39.65,58.25-87.6,67.4-138.63,8.19-45.42,6.7-92.19,5.25-137.42Z"/>
      <path class="cls-2" d="M273.19,64.18c-3.38.32-6.75.71-10.1,1.17-96.34,12.95-179.88,78.55-212.79,167.13-1.18,3.19.59,6.69,3.95,7.8.72.24,1.43.34,2.15.34,2.66,0,5.16-1.57,6.1-4.08,31.33-84.32,110.79-146.76,202.42-159.07,3.19-.43,6.36-.79,9.56-1.1,3.55-.34,6.15-3.34,5.79-6.71-.36-3.36-3.44-5.75-7.08-5.47Z"/>
      <path class="cls-2" d="M44.7,276.98c-3.65-.43-6.7,2.19-7.01,5.55-4.78,51.11-5.6,108.15-2.45,169.25l.02,36.28c9.2,92.67,62.9,173.86,140.12,211.85.96.46,1.97.69,2.97.69,2.34,0,4.58-1.2,5.74-3.3,1.65-3,.41-6.7-2.76-8.25-73.36-36.08-124.4-113.54-133.19-201.55v-36c-3.13-60.86-2.32-117.33,2.41-167.87.31-3.38-2.32-6.35-5.87-6.65Z"/>
      <path class="cls-2" d="M550.3,246.06c-30.32-98.94-121.87-172.05-227.8-181.92-3.57-.2-6.72,2.14-7.07,5.5-.35,3.36,2.24,6.37,5.79,6.7,100.71,9.38,187.78,78.98,216.65,173.16,12.68,41.35,12.05,86.39,11.44,129.91-.2,14.48-.39,28.9-.13,43.11.93,49.31-.26,106.23-26.25,157.6-44.71,88.38-142,143.23-242.28,136.48-18.91-1.26-37.57-4.6-55.49-9.93-3.44-1.01-7.03.77-8.11,4-1.06,3.22.82,6.66,4.24,7.68,18.87,5.61,38.55,9.13,58.45,10.46,5.85.38,11.68.59,17.5.59,99.14-.01,192.99-56.29,237.35-143.98,27.21-53.8,28.46-112.4,27.51-163.12-.26-14.08-.06-28.37.13-42.71.64-44.45,1.29-90.4-11.93-133.52Z"/>
      <path class="cls-2" d="M297.03,697.57c70.26,0,139.24-31.24,183.93-87.45,2.15-2.69,1.58-6.54-1.28-8.56-2.85-2.04-6.91-1.49-9.05,1.21-58.8,73.94-162.01,102.11-251.02,68.54-35.43-13.38-66.82-35.46-90.76-63.86-2.24-2.65-6.28-3.09-9.09-.96-2.78,2.12-3.24,5.96-1.01,8.61,25.33,30.05,58.55,53.44,96.07,67.6,26.69,10.04,54.55,14.89,82.21,14.89Z"/>
      <path class="cls-2" d="M495.39,563.64c-1.44,3.09.04,6.72,3.31,8.08.85.35,1.73.52,2.6.52,2.48,0,4.85-1.36,5.92-3.64,9.04-19.41,17.38-38.67,20.31-61.44,6.1-80.19,5.21-150.34-2.82-220.49-2.89-45.18-23.3-87.98-57.46-120.54-2.52-2.4-6.6-2.41-9.14-.02-2.53,2.39-2.54,6.27-.02,8.66,31.94,30.43,51.01,70.45,53.75,112.93,7.96,69.69,8.85,139.14,2.83,218.28-2.69,20.79-10.65,39.15-19.27,57.67Z"/>
      <path class="cls-2" d="M298.01,94.27h-.02c-87.02,0-170.91,51.61-208.78,128.45-25.78,52.3-24.33,109.8-22.92,165.41l.18,6.95c.26,10.8.29,21.56.3,32.28.1,48.3.19,98.23,23.92,145.18,1.11,2.19,3.43,3.48,5.84,3.48.93,0,1.89-.19,2.78-.6,3.22-1.46,4.57-5.11,3.03-8.17-22.47-44.47-22.55-90.83-22.65-139.92-.02-10.8-.05-21.65-.31-32.54l-.18-6.96c-1.36-54.19-2.77-110.22,21.72-159.93,35.78-72.62,114.98-121.39,197.07-121.39h.07c42.92,0,86.12,12.87,121.67,36.23,1.12.74,2.41,1.1,3.68,1.1,2.04,0,4.06-.92,5.31-2.62,2.03-2.78,1.3-6.59-1.62-8.52-37.69-24.78-83.51-38.41-129.04-38.41.01-.01-.01-.01-.04-.01Z"/>
      <path class="cls-2" d="M298.01,125.53c-109.76,0-199.05,86.87-199.05,193.68v154.05c0,106.78,89.29,193.66,199.05,193.66s199.05-86.88,199.05-193.66v-154.05c.01-106.8-89.29-193.68-199.05-193.68ZM484.16,473.25c0,100.04-83.5,181.42-186.13,181.42s-186.13-81.39-186.13-181.42v-154.05c0-100.05,83.5-181.44,186.13-181.44s186.13,81.39,186.13,181.44v154.05Z"/>
      <path class="cls-2" d="M298.01,156.78c-92.06,0-166.96,72.86-166.96,162.41v154.06c0,89.55,74.89,162.41,166.96,162.41s166.95-72.86,166.95-162.41v-154.05c.01-89.55-74.89-162.42-166.95-162.42ZM452.06,473.25c0,82.8-69.1,150.17-154.03,150.17s-154.04-67.37-154.04-150.17v-154.05c0-82.8,69.1-150.17,154.04-150.17s154.03,67.37,154.03,150.17v154.05Z"/>
      <path class="cls-2" d="M298.01,188.04c-2.42,0-4.84.06-7.25.19-46.3,2.4-88.92,28.57-111.22,68.33-15.13,26.96-16.39,54.82-16.39,81.06v88.13c0,5.69-.13,11.45-.25,17.23-.32,15.01-.66,30.53,1.17,45.63,5.54,45.97,35.62,84.81,80.49,103.88,17.9,7.6,36.66,11.36,55.2,11.36,26.3,0,52.16-7.54,74.38-22.39,2.92-1.95,3.62-5.77,1.56-8.53-2.05-2.76-6.09-3.4-9-1.48-34.12,22.78-77.8,26.47-116.85,9.85-40.65-17.27-67.92-52.45-72.93-94.09-1.72-14.29-1.4-29.39-1.07-44,.12-5.87.24-11.7.24-17.48v-88.13c0-24.69,1.16-50.85,14.89-75.31,20.19-35.99,58.7-59.68,100.52-61.86,2.17-.11,4.36-.17,6.53-.17,42.02,0,81.86,21.77,103.96,56.83,15.81,25.08,17.98,52.01,17.98,77.38,0,15.77.3,31.62.61,47.5.63,32.59,1.28,66.29-.86,98.94-1.35,20.44-8.17,40.3-19.71,57.45-1.92,2.85-1.04,6.64,1.97,8.45,1.07.66,2.28.96,3.46.96,2.14,0,4.23-1,5.46-2.83,12.73-18.89,20.24-40.77,21.72-63.29,2.17-33.14,1.52-67.09.88-99.91-.3-15.81-.61-31.59-.61-47.28,0-25.82-2.35-55.96-19.81-83.66-24.43-38.71-68.52-62.77-115.06-62.77Z"/>
      <path class="cls-2" d="M201.72,406.76c-3.57,0-6.46,2.74-6.46,6.12l-.04,19.6c-.04,13.1-.07,26.2.04,39.31.32,41.04,24.82,77.68,62.41,93.33,12.95,5.4,26.56,7.97,40.04,7.97,32.99,0,65.18-15.47,84.86-43.13,16.83-23.65,18.21-49.23,18.21-77.81v-89c0-5.16.16-10.45.3-15.79.45-16.33.93-33.22-2.57-49.09-10.08-45.77-52.34-78.98-100.49-78.98-1.96,0-3.92.06-5.87.17-48,2.64-88.24,38.09-95.65,84.27-2.42,15.04-1.98,30.76-1.55,45.95.17,5.75.32,11.45.32,17.04,0,3.38,2.89,6.12,6.46,6.12s6.46-2.74,6.46-6.12c0-5.7-.16-11.52-.32-17.36-.42-14.65-.84-29.81,1.41-43.78,6.4-39.84,42.35-71.61,83.62-73.89,1.71-.09,3.43-.15,5.13-.15,42.06,0,79.01,29.12,87.84,69.24,3.19,14.48,2.73,30.64,2.29,46.26-.16,5.46-.3,10.86-.3,16.12v89c0,27.48-1.18,50.16-16,70.96-24.24,34.05-70.09,46.97-108.99,30.8-32.93-13.72-54.4-45.99-54.69-82.22-.1-13.05-.06-26.13-.04-39.19l.04-19.63c-.01-3.38-2.9-6.12-6.47-6.12Z"/>
      <path class="cls-2" d="M362.09,459.63h.13c3.51,0,6.39-2.65,6.46-5.98.94-42.97.94-87.69.93-131.41-3.01-35.1-30.6-71.51-71.56-71.68h-.02c-24.81,0-48.1,12.91-60.79,33.69-10.97,17.95-10.51,38.53-10.04,58.42.08,3.78.18,7.52.18,11.19v90.3l-.06,8.04c-.25,21.84-.5,44.43,15.56,63.9,13.32,16.16,33.33,25.28,54.71,25.28,2.82,0,5.67-.16,8.54-.49,24.8-2.79,45.74-17.3,56.03-38.79,1.47-3.08.04-6.71-3.21-8.11-3.22-1.36-7.08-.01-8.55,3.05-8.42,17.56-25.52,29.4-45.78,31.68-19.97,2.3-39.27-5.28-51.54-20.17-13.26-16.1-13.05-35.6-12.81-56.24l.06-98.48c0-3.76-.08-7.59-.18-11.46-.42-18.21-.86-37.05,8.3-52.02,10.4-17,29.39-27.58,49.59-27.58,33.54.15,56.18,30.85,58.7,59.93,0,43.16,0,87.8-.94,130.65-.11,3.39,2.73,6.2,6.3,6.27Z"/>
      <path class="cls-2" d="M298.01,281.82c-21.26,0-38.56,16.76-38.56,37.38v154.05c0,20.61,17.3,37.38,38.56,37.38s38.55-16.76,38.55-37.38v-154.05c.01-20.61-17.29-37.38-38.55-37.38ZM323.66,473.25c0,13.87-11.5,25.15-25.63,25.15s-25.64-11.28-25.64-25.15v-154.05c0-13.82,11.45-25.07,25.54-25.13.04,0,.07.02.12.02.04,0,.07-.02.11-.02,14.09.06,25.52,11.3,25.52,25.12v154.06h-.01Z"/>
    </g>
  </g>
</svg>