<svg width="500" height="400" viewBox="0 0 500 400" fill="none" xmlns="http://www.w3.org/2000/svg">
<g clip-path="url(#clip0_946_641)">
<path d="M495 0H5C2.23858 0 0 2.23858 0 5V395C0 397.761 2.23858 400 5 400H495C497.761 400 500 397.761 500 395V5C500 2.23858 497.761 0 495 0Z" fill="#F1F2F7"/>
<mask id="mask0_946_641" style="mask-type:luminance" maskUnits="userSpaceOnUse" x="76" y="20" width="145" height="360">
<path d="M206 20H91C82.7157 20 76 26.7157 76 35V365C76 373.284 82.7157 380 91 380H206C214.284 380 221 373.284 221 365V35C221 26.7157 214.284 20 206 20Z" fill="white"/>
</mask>
<g mask="url(#mask0_946_641)">
<path d="M206 20H91C82.7157 20 76 26.7157 76 35V365C76 373.284 82.7157 380 91 380H206C214.284 380 221 373.284 221 365V35C221 26.7157 214.284 20 206 20Z" fill="white"/>
<path d="M193.5 85H103.5C96.5964 85 91 90.5964 91 97.5C91 104.404 96.5964 110 103.5 110H193.5C200.404 110 206 104.404 206 97.5C206 90.5964 200.404 85 193.5 85Z" fill="#F1F2F7"/>
<path d="M193.5 121H103.5C96.5964 121 91 126.596 91 133.5C91 140.404 96.5964 146 103.5 146H193.5C200.404 146 206 140.404 206 133.5C206 126.596 200.404 121 193.5 121Z" fill="#F1F2F7"/>
<path d="M193.5 157H103.5C96.5964 157 91 162.596 91 169.5C91 176.404 96.5964 182 103.5 182H193.5C200.404 182 206 176.404 206 169.5C206 162.596 200.404 157 193.5 157Z" fill="#F1F2F7"/>
<path d="M193.5 193H103.5C96.5964 193 91 198.596 91 205.5C91 212.404 96.5964 218 103.5 218H193.5C200.404 218 206 212.404 206 205.5C206 198.596 200.404 193 193.5 193Z" fill="#F1F2F7"/>
<circle cx="94.5001" cy="51.0049" r="3.50005" fill="#EDEEF3"/>
<rect x="106" y="48.5049" width="35" height="5" fill="#EDEEF3"/>
<circle cx="152.5" cy="51.0049" r="3.50005" fill="#EDEEF3"/>
</g>
<path d="M409 20H246C237.716 20 231 26.7157 231 35V45C231 53.2843 237.716 60 246 60H409C417.284 60 424 53.2843 424 45V35C424 26.7157 417.284 20 409 20Z" fill="white"/>
<path d="M297 30H251C245.477 30 241 34.4772 241 40C241 45.5228 245.477 50 251 50H297C302.523 50 307 45.5228 307 40C307 34.4772 302.523 30 297 30Z" fill="#F1F2F7"/>
<path d="M384 40C384 34.4772 379.523 30 374 30C368.477 30 364 34.4772 364 40C364 45.5228 368.477 50 374 50C379.523 50 384 45.5228 384 40Z" fill="#F1F2F7"/>
<path d="M414 40C414 34.4772 409.523 30 404 30C398.477 30 394 34.4772 394 40C394 45.5228 398.477 50 404 50C409.523 50 414 45.5228 414 40Z" fill="#F1F2F7"/>
<g opacity="0.8">
<path d="M293 70H246C237.716 70 231 76.7157 231 85V145C231 153.284 237.716 160 246 160H293C301.284 160 308 153.284 308 145V85C308 76.7157 301.284 70 293 70Z" fill="white"/>
<path d="M409 70H328C319.716 70 313 76.7157 313 85V145C313 153.284 319.716 160 328 160H409C417.284 160 424 153.284 424 145V85C424 76.7157 417.284 70 409 70Z" fill="white"/>
<path d="M409 165H246C237.716 165 231 171.716 231 180V203C231 211.284 237.716 218 246 218H409C417.284 218 424 211.284 424 203V180C424 171.716 417.284 165 409 165Z" fill="white"/>
<path d="M310 223H246C237.716 223 231 229.716 231 238V365C231 373.284 237.716 380 246 380H310C318.284 380 325 373.284 325 365V238C325 229.716 318.284 223 310 223Z" fill="white"/>
<path d="M409 223H345C336.716 223 330 229.716 330 238V365C330 373.284 336.716 380 345 380H409C417.284 380 424 373.284 424 365V238C424 229.716 417.284 223 409 223Z" fill="white"/>
</g>
</g>
<defs>
<clipPath id="clip0_946_641">
<rect width="500" height="400" fill="white"/>
</clipPath>
</defs>
</svg>
